<svg id="visual" viewBox="0 0 900 600" width="900" height="600" xmlns="http://www.w3.org/2000/svg" xmlns:xlink="http://www.w3.org/1999/xlink" version="1.1"><g stroke-width="1" stroke-linejoin="bevel"><path d="M404 299L504 370L526 302Z" fill="#004089" stroke="#004089"></path><path d="M404 299L423 432L504 370Z" fill="#0066ff" stroke="#0066ff"></path><path d="M526 302L539 217L404 299Z" fill="#002545" stroke="#002545"></path><path d="M539 217L409 176L404 299Z" fill="#002e5c" stroke="#002e5c"></path><path d="M514 492L593 408L504 370Z" fill="#00101c" stroke="#00101c"></path><path d="M504 370L593 408L526 302Z" fill="#004089" stroke="#004089"></path><path d="M526 302L631 292L539 217Z" fill="#002545" stroke="#002545"></path><path d="M593 408L631 292L526 302Z" fill="#003872" stroke="#003872"></path><path d="M423 432L514 492L504 370Z" fill="#001b30" stroke="#001b30"></path><path d="M270 407L385 499L423 432Z" fill="#002e5c" stroke="#002e5c"></path><path d="M423 432L385 499L514 492Z" fill="#003872" stroke="#003872"></path><path d="M270 407L423 432L404 299Z" fill="#0058cf" stroke="#0058cf"></path><path d="M319 183L269 290L404 299Z" fill="#004089" stroke="#004089"></path><path d="M409 176L319 183L404 299Z" fill="#002e5c" stroke="#002e5c"></path><path d="M631 292L638 209L539 217Z" fill="#005fe7" stroke="#005fe7"></path><path d="M480 89L379 106L409 176Z" fill="#00101c" stroke="#00101c"></path><path d="M269 290L270 407L404 299Z" fill="#001b30" stroke="#001b30"></path><path d="M480 89L409 176L539 217Z" fill="#0058cf" stroke="#0058cf"></path><path d="M409 176L338 112L319 183Z" fill="#0066ff" stroke="#0066ff"></path><path d="M621 66L480 89L539 217Z" fill="#004089" stroke="#004089"></path><path d="M593 408L697 339L631 292Z" fill="#002e5c" stroke="#002e5c"></path><path d="M631 292L697 339L638 209Z" fill="#003872" stroke="#003872"></path><path d="M726 404L697 339L593 408Z" fill="#005fe7" stroke="#005fe7"></path><path d="M361 0L338 112L379 106Z" fill="#002e5c" stroke="#002e5c"></path><path d="M379 106L338 112L409 176Z" fill="#0050b7" stroke="#0050b7"></path><path d="M200 199L178 275L269 290Z" fill="#003872" stroke="#003872"></path><path d="M529 600L592 528L514 492Z" fill="#002e5c" stroke="#002e5c"></path><path d="M514 492L592 528L593 408Z" fill="#0066ff" stroke="#0066ff"></path><path d="M714 508L726 404L593 408Z" fill="#001b30" stroke="#001b30"></path><path d="M270 407L274 521L385 499Z" fill="#0058cf" stroke="#0058cf"></path><path d="M390 600L529 600L514 492Z" fill="#0050b7" stroke="#0050b7"></path><path d="M697 339L702 171L638 209Z" fill="#00101c" stroke="#00101c"></path><path d="M638 209L621 66L539 217Z" fill="#005fe7" stroke="#005fe7"></path><path d="M764 190L702 171L697 339Z" fill="#004089" stroke="#004089"></path><path d="M390 600L514 492L385 499Z" fill="#002545" stroke="#002545"></path><path d="M592 528L714 508L593 408Z" fill="#001b30" stroke="#001b30"></path><path d="M200 199L269 290L319 183Z" fill="#001b30" stroke="#001b30"></path><path d="M269 290L170 362L270 407Z" fill="#001b30" stroke="#001b30"></path><path d="M270 407L185 510L274 521Z" fill="#0058cf" stroke="#0058cf"></path><path d="M296 600L390 600L385 499Z" fill="#005fe7" stroke="#005fe7"></path><path d="M183 124L200 199L319 183Z" fill="#005fe7" stroke="#005fe7"></path><path d="M178 275L170 362L269 290Z" fill="#003872" stroke="#003872"></path><path d="M702 171L621 66L638 209Z" fill="#0066ff" stroke="#0066ff"></path><path d="M480 89L361 0L379 106Z" fill="#004089" stroke="#004089"></path><path d="M529 600L598 600L592 528Z" fill="#001b30" stroke="#001b30"></path><path d="M705 600L714 508L592 528Z" fill="#002e5c" stroke="#002e5c"></path><path d="M764 190L710 116L702 171Z" fill="#0048a0" stroke="#0048a0"></path><path d="M702 171L710 116L621 66Z" fill="#0058cf" stroke="#0058cf"></path><path d="M578 0L489 0L480 89Z" fill="#002545" stroke="#002545"></path><path d="M338 112L183 124L319 183Z" fill="#0066ff" stroke="#0066ff"></path><path d="M825 302L697 339L726 404Z" fill="#00101c" stroke="#00101c"></path><path d="M825 302L764 190L697 339Z" fill="#001b30" stroke="#001b30"></path><path d="M221 600L296 600L274 521Z" fill="#0048a0" stroke="#0048a0"></path><path d="M274 521L296 600L385 499Z" fill="#0050b7" stroke="#0050b7"></path><path d="M489 0L361 0L480 89Z" fill="#0050b7" stroke="#0050b7"></path><path d="M170 362L185 510L270 407Z" fill="#0058cf" stroke="#0058cf"></path><path d="M621 66L578 0L480 89Z" fill="#0050b7" stroke="#0050b7"></path><path d="M730 0L578 0L621 66Z" fill="#0050b7" stroke="#0050b7"></path><path d="M200 199L122 205L178 275Z" fill="#0058cf" stroke="#0058cf"></path><path d="M178 275L90 283L170 362Z" fill="#00101c" stroke="#00101c"></path><path d="M262 0L183 124L338 112Z" fill="#003872" stroke="#003872"></path><path d="M833 436L825 302L726 404Z" fill="#002e5c" stroke="#002e5c"></path><path d="M136 138L122 205L200 199Z" fill="#0050b7" stroke="#0050b7"></path><path d="M170 362L101 478L185 510Z" fill="#0048a0" stroke="#0048a0"></path><path d="M787 600L793 470L714 508Z" fill="#0050b7" stroke="#0050b7"></path><path d="M714 508L793 470L726 404Z" fill="#0066ff" stroke="#0066ff"></path><path d="M598 600L705 600L592 528Z" fill="#005fe7" stroke="#005fe7"></path><path d="M185 510L221 600L274 521Z" fill="#0066ff" stroke="#0066ff"></path><path d="M119 0L136 138L183 124Z" fill="#00101c" stroke="#00101c"></path><path d="M183 124L136 138L200 199Z" fill="#0066ff" stroke="#0066ff"></path><path d="M0 279L90 283L0 211Z" fill="#0048a0" stroke="#0048a0"></path><path d="M122 205L90 283L178 275Z" fill="#002e5c" stroke="#002e5c"></path><path d="M185 510L121 600L221 600Z" fill="#002545" stroke="#002545"></path><path d="M361 0L262 0L338 112Z" fill="#002545" stroke="#002545"></path><path d="M90 283L91 385L170 362Z" fill="#00101c" stroke="#00101c"></path><path d="M900 486L833 436L793 470Z" fill="#001b30" stroke="#001b30"></path><path d="M793 470L833 436L726 404Z" fill="#0050b7" stroke="#0050b7"></path><path d="M91 385L101 478L170 362Z" fill="#001b30" stroke="#001b30"></path><path d="M764 190L819 128L710 116Z" fill="#001b30" stroke="#001b30"></path><path d="M710 116L730 0L621 66Z" fill="#005fe7" stroke="#005fe7"></path><path d="M900 198L819 128L764 190Z" fill="#005fe7" stroke="#005fe7"></path><path d="M900 198L764 190L825 302Z" fill="#0066ff" stroke="#0066ff"></path><path d="M262 0L218 0L183 124Z" fill="#002e5c" stroke="#002e5c"></path><path d="M774 0L730 0L710 116Z" fill="#002e5c" stroke="#002e5c"></path><path d="M705 600L787 600L714 508Z" fill="#0058cf" stroke="#0058cf"></path><path d="M900 400L825 302L833 436Z" fill="#004089" stroke="#004089"></path><path d="M900 400L900 309L825 302Z" fill="#0050b7" stroke="#0050b7"></path><path d="M900 486L900 400L833 436Z" fill="#004089" stroke="#004089"></path><path d="M101 478L121 600L185 510Z" fill="#002545" stroke="#002545"></path><path d="M900 68L774 0L819 128Z" fill="#0066ff" stroke="#0066ff"></path><path d="M819 128L774 0L710 116Z" fill="#00101c" stroke="#00101c"></path><path d="M900 309L900 198L825 302Z" fill="#005fe7" stroke="#005fe7"></path><path d="M787 600L900 486L793 470Z" fill="#003872" stroke="#003872"></path><path d="M0 211L90 283L122 205Z" fill="#004089" stroke="#004089"></path><path d="M90 283L0 279L91 385Z" fill="#0066ff" stroke="#0066ff"></path><path d="M91 385L0 393L101 478Z" fill="#00101c" stroke="#00101c"></path><path d="M101 478L0 510L121 600Z" fill="#003872" stroke="#003872"></path><path d="M0 211L122 205L136 138Z" fill="#003872" stroke="#003872"></path><path d="M0 279L0 393L91 385Z" fill="#002545" stroke="#002545"></path><path d="M218 0L119 0L183 124Z" fill="#0048a0" stroke="#0048a0"></path><path d="M0 101L0 211L136 138Z" fill="#0058cf" stroke="#0058cf"></path><path d="M0 393L0 510L101 478Z" fill="#0050b7" stroke="#0050b7"></path><path d="M900 198L900 68L819 128Z" fill="#002545" stroke="#002545"></path><path d="M119 0L0 101L136 138Z" fill="#0058cf" stroke="#0058cf"></path><path d="M787 600L900 600L900 486Z" fill="#004089" stroke="#004089"></path><path d="M900 68L900 0L774 0Z" fill="#0058cf" stroke="#0058cf"></path><path d="M0 510L0 600L121 600Z" fill="#0066ff" stroke="#0066ff"></path><path d="M119 0L0 0L0 101Z" fill="#0050b7" stroke="#0050b7"></path></g></svg>